<svg width="1441" height="650" viewBox="0 0 1441 650" fill="none" xmlns="http://www.w3.org/2000/svg">
<g clip-path="url(#clip0)">
<rect width="1440" height="150" fill="url(#paint0_linear)"/>
<path d="M973.5 77.4997C223.808 34.437 738.255 511.071 993.5 426C1029.36 414.049 1020.44 497.312 1079.67 470.075C1138.89 442.839 1478.63 597.449 1436 556C1466.67 521.334 1205.5 392.5 1145.5 412.5C1085.5 432.5 1120.32 85.9332 973.5 77.4997Z" fill="#F6F5FB"/>
<path d="M408.149 261L586.649 286.5C298.149 311 517.476 327.306 217.149 432.5C159.149 351.5 161.335 386.22 408.149 261Z" fill="#F6F5FB"/>
<path opacity="0.2" d="M1331.5 522C1328.41 522.008 1325.35 521.404 1322.5 520.223C1319.65 519.041 1317.06 517.306 1314.88 515.117C1312.69 512.94 1310.96 510.35 1309.78 507.498C1308.6 504.646 1307.99 501.587 1308 498.5C1307.99 495.413 1308.6 492.354 1309.78 489.502C1310.96 486.649 1312.69 484.059 1314.88 481.882C1317.06 479.693 1319.65 477.958 1322.5 476.777C1325.35 475.596 1328.41 474.992 1331.5 475C1334.59 474.992 1337.65 475.596 1340.5 476.777C1343.35 477.959 1345.94 479.694 1348.12 481.883C1350.31 484.06 1352.04 486.65 1353.22 489.502C1354.4 492.354 1355.01 495.413 1355 498.5C1355.01 501.587 1354.4 504.646 1353.22 507.498C1352.04 510.35 1350.31 512.94 1348.12 515.117C1345.94 517.306 1343.35 519.041 1340.5 520.223C1337.65 521.404 1334.59 522.008 1331.5 522ZM1331.5 481.714C1327.05 481.719 1322.78 483.49 1319.64 486.637C1316.49 489.783 1314.72 494.05 1314.72 498.5C1314.72 502.951 1316.49 507.218 1319.64 510.365C1322.78 513.512 1327.05 515.282 1331.5 515.286C1335.95 515.282 1340.22 513.513 1343.37 510.365C1346.51 507.218 1348.28 502.951 1348.29 498.5C1348.28 494.05 1346.51 489.783 1343.36 486.636C1340.22 483.489 1335.95 481.719 1331.5 481.714Z" fill="black"/>
<path opacity="0.2" d="M888.5 421C885.413 421.008 882.354 420.404 879.502 419.223C876.65 418.041 874.06 416.306 871.883 414.117C869.694 411.94 867.959 409.35 866.777 406.498C865.596 403.646 864.992 400.587 865 397.5C864.992 394.413 865.595 391.354 866.777 388.502C867.958 385.649 869.694 383.059 871.883 380.882C874.06 378.693 876.65 376.958 879.502 375.777C882.355 374.596 885.413 373.992 888.5 374C891.587 373.992 894.646 374.596 897.498 375.777C900.35 376.959 902.94 378.694 905.117 380.883C907.306 383.06 909.042 385.65 910.223 388.502C911.404 391.354 912.008 394.413 912 397.5C912.009 400.587 911.405 403.646 910.223 406.498C909.042 409.35 907.306 411.94 905.117 414.117C902.94 416.306 900.35 418.041 897.498 419.223C894.646 420.404 891.587 421.008 888.5 421ZM888.5 380.714C884.05 380.719 879.783 382.49 876.637 385.637C873.49 388.783 871.72 393.05 871.715 397.5C871.719 401.951 873.488 406.218 876.635 409.365C879.782 412.512 884.049 414.282 888.5 414.286C892.951 414.282 897.218 412.513 900.365 409.365C903.513 406.218 905.282 401.951 905.286 397.5C905.281 393.05 903.511 388.783 900.364 385.636C897.217 382.489 892.95 380.719 888.5 380.714Z" fill="black"/>
<path opacity="0.2" d="M283.5 394C280.413 394.008 277.354 393.404 274.502 392.223C271.65 391.041 269.06 389.306 266.883 387.117C264.694 384.94 262.959 382.35 261.777 379.498C260.596 376.646 259.992 373.587 260 370.5C259.992 367.413 260.595 364.354 261.777 361.502C262.958 358.649 264.694 356.059 266.883 353.882C269.06 351.693 271.65 349.958 274.502 348.777C277.355 347.596 280.413 346.992 283.5 347C286.587 346.992 289.646 347.596 292.498 348.777C295.35 349.959 297.94 351.694 300.117 353.883C302.306 356.06 304.042 358.65 305.223 361.502C306.404 364.354 307.008 367.413 307 370.5C307.009 373.587 306.405 376.646 305.223 379.498C304.042 382.35 302.306 384.94 300.117 387.117C297.94 389.306 295.35 391.041 292.498 392.223C289.646 393.404 286.587 394.008 283.5 394ZM283.5 353.714C279.05 353.719 274.783 355.49 271.637 358.637C268.49 361.783 266.72 366.05 266.715 370.5C266.719 374.951 268.488 379.218 271.635 382.365C274.782 385.512 279.049 387.282 283.5 387.286C287.951 387.282 292.218 385.513 295.365 382.365C298.513 379.218 300.282 374.951 300.286 370.5C300.281 366.05 298.511 361.783 295.364 358.636C292.217 355.489 287.95 353.719 283.5 353.714Z" fill="black"/>
<path fill-rule="evenodd" clip-rule="evenodd" d="M1142.36 77.0259C1008.83 117.506 943.037 137.452 880.157 79.5C627.434 -153.415 682.834 396.191 1096.66 494.5C1112.78 498.331 1124.78 492.706 1139.25 485.925C1178.34 467.599 1234.93 440.833 1440.16 569.5V0C1312.08 25.4199 1216.91 54.4237 1142.36 77.0259Z" fill="url(#paint1_linear)"/>
<g filter="url(#filter0_d)">
<path fill-rule="evenodd" clip-rule="evenodd" d="M64.5325 21.7288C170.708 35.0481 311.819 52.7501 458.844 0H946.098C946.262 0.534409 946.426 1.06947 946.589 1.60519C946.68 1.90327 946.77 2.20154 946.861 2.5C1015.44 229.109 996.815 641.782 804.057 441.867C671.095 303.967 245.447 286.041 245.057 507.867C244.667 729.693 93.1686 653.997 0 528.522V14.3852C19.6249 16.0952 41.2379 18.8065 64.5325 21.7288Z" fill="url(#paint2_linear)"/>
</g>
<path opacity="0.2" d="M782.5 158C779.413 158.008 776.354 157.404 773.502 156.223C770.65 155.041 768.06 153.306 765.883 151.117C763.694 148.94 761.959 146.35 760.777 143.498C759.596 140.646 758.992 137.587 759 134.5C758.992 131.413 759.595 128.354 760.777 125.502C761.958 122.649 763.694 120.059 765.883 117.882C768.06 115.693 770.65 113.958 773.502 112.777C776.355 111.596 779.413 110.992 782.5 111C785.587 110.992 788.646 111.596 791.498 112.777C794.35 113.959 796.94 115.694 799.117 117.883C801.306 120.06 803.042 122.65 804.223 125.502C805.404 128.354 806.008 131.413 806 134.5C806.009 137.587 805.405 140.646 804.223 143.498C803.042 146.35 801.306 148.94 799.117 151.117C796.94 153.306 794.35 155.041 791.498 156.223C788.646 157.404 785.587 158.008 782.5 158ZM782.5 117.714C778.05 117.719 773.783 119.49 770.637 122.637C767.49 125.783 765.72 130.05 765.715 134.5C765.719 138.951 767.488 143.218 770.635 146.365C773.782 149.512 778.049 151.282 782.5 151.286C786.951 151.282 791.218 149.513 794.365 146.365C797.513 143.218 799.282 138.951 799.286 134.5C799.281 130.05 797.511 125.783 794.364 122.636C791.217 119.489 786.95 117.719 782.5 117.714Z" fill="white"/>
<path opacity="0.2" d="M57.5001 378C54.4128 378.008 51.3545 377.404 48.5022 376.223C45.6499 375.041 43.0603 373.306 40.8831 371.117C38.6941 368.94 36.9585 366.35 35.7771 363.498C34.5956 360.646 33.9916 357.587 34.0001 354.5C33.9916 351.413 34.5955 348.354 35.7769 345.502C36.9584 342.649 38.694 340.059 40.8831 337.882C43.0604 335.693 45.65 333.958 48.5023 332.777C51.3546 331.596 54.4129 330.992 57.5001 331C60.5874 330.992 63.6457 331.596 66.498 332.777C69.3503 333.959 71.9399 335.694 74.117 337.883C76.306 340.06 78.0415 342.65 79.223 345.502C80.4045 348.354 81.0085 351.413 81.0001 354.5C81.0086 357.587 80.4046 360.646 79.2231 363.498C78.0416 366.35 76.3061 368.94 74.117 371.117C71.9399 373.306 69.3503 375.041 66.498 376.223C63.6457 377.404 60.5874 378.008 57.5001 378ZM57.5001 337.714C53.0499 337.719 48.7835 339.49 45.6368 342.637C42.4901 345.783 40.7201 350.05 40.7151 354.5C40.7188 358.951 42.4884 363.218 45.6353 366.365C48.7823 369.512 53.0495 371.282 57.5001 371.286C61.9509 371.282 66.2183 369.513 69.3654 366.365C72.5126 363.218 74.2824 358.951 74.2861 354.5C74.2811 350.05 72.5109 345.783 69.364 342.636C66.2171 339.489 61.9505 337.719 57.5001 337.714Z" fill="white"/>
<path opacity="0.2" d="M1341.5 129C1339.07 129.006 1336.66 128.531 1334.42 127.601C1332.17 126.671 1330.13 125.305 1328.42 123.581C1326.7 121.868 1325.33 119.829 1324.4 117.583C1323.47 115.338 1322.99 112.93 1323 110.5C1322.99 108.069 1323.47 105.662 1324.4 103.416C1325.33 101.171 1326.7 99.1318 1328.42 97.4178C1330.13 95.6947 1332.17 94.3287 1334.42 93.3988C1336.66 92.4688 1339.07 91.9934 1341.5 92.0001C1343.93 91.9935 1346.34 92.469 1348.58 93.3991C1350.83 94.3292 1352.87 95.6954 1354.58 97.4186C1356.3 99.1325 1357.67 101.171 1358.6 103.417C1359.53 105.662 1360.01 108.07 1360 110.5C1360.01 112.93 1359.53 115.338 1358.6 117.583C1357.67 119.829 1356.3 121.868 1354.58 123.581C1352.87 125.305 1350.83 126.671 1348.58 127.601C1346.34 128.531 1343.93 129.006 1341.5 129ZM1341.5 97.2855C1338 97.2897 1334.64 98.6833 1332.16 101.161C1329.68 103.638 1328.29 106.997 1328.29 110.5C1328.29 114.004 1329.68 117.363 1332.16 119.841C1334.64 122.318 1338 123.711 1341.5 123.714C1345 123.712 1348.36 122.318 1350.84 119.841C1353.32 117.363 1354.71 114.004 1354.71 110.5C1354.71 106.997 1353.32 103.638 1350.84 101.16C1348.36 98.683 1345 97.2895 1341.5 97.2855Z" fill="white"/>
<path opacity="0.2" d="M1074.5 392C1072.07 392.006 1069.66 391.531 1067.42 390.601C1065.17 389.671 1063.13 388.305 1061.42 386.581C1059.7 384.868 1058.33 382.829 1057.4 380.583C1056.47 378.338 1055.99 375.93 1056 373.5C1055.99 371.069 1056.47 368.662 1057.4 366.416C1058.33 364.171 1059.7 362.132 1061.42 360.418C1063.13 358.695 1065.17 357.329 1067.42 356.399C1069.66 355.469 1072.07 354.993 1074.5 355C1076.93 354.994 1079.34 355.469 1081.58 356.399C1083.83 357.329 1085.87 358.695 1087.58 360.419C1089.3 362.132 1090.67 364.171 1091.6 366.417C1092.53 368.662 1093.01 371.07 1093 373.5C1093.01 375.93 1092.53 378.338 1091.6 380.583C1090.67 382.829 1089.3 384.868 1087.58 386.581C1085.87 388.305 1083.83 389.671 1081.58 390.601C1079.34 391.531 1076.93 392.006 1074.5 392ZM1074.5 360.286C1071 360.29 1067.64 361.683 1065.16 364.161C1062.68 366.638 1061.29 369.997 1061.29 373.5C1061.29 377.004 1062.68 380.363 1065.16 382.841C1067.64 385.318 1071 386.711 1074.5 386.714C1078 386.712 1081.36 385.318 1083.84 382.841C1086.32 380.363 1087.71 377.004 1087.71 373.5C1087.71 369.997 1086.32 366.638 1083.84 364.16C1081.36 361.683 1078 360.289 1074.5 360.286Z" fill="white"/>
<path d="M1.5 17.5C110.401 32.6503 171.073 42.4929 286 36.5C338.156 170.104 456.883 30.5854 432 83C432 83 412.677 189.111 371 240C325.934 295.028 277.462 299.978 215 334C62.7301 416.94 181.572 537.53 201.5 579.5C237.546 655.416 1.5 509.5 1.5 509.5V17.5Z" fill="url(#paint3_linear)"/>
<path opacity="0.2" d="M571 269C575.418 269 579 265.418 579 261C579 256.582 575.418 253 571 253C566.582 253 563 256.582 563 261C563 265.418 566.582 269 571 269Z" fill="white"/>
<path opacity="0.2" d="M362 336C366.418 336 370 332.418 370 328C370 323.582 366.418 320 362 320C357.582 320 354 323.582 354 328C354 332.418 357.582 336 362 336Z" fill="black"/>
<path opacity="0.2" d="M186 483C190.418 483 194 479.418 194 475C194 470.582 190.418 467 186 467C181.582 467 178 470.582 178 475C178 479.418 181.582 483 186 483Z" fill="white"/>
<path opacity="0.2" d="M1027 269C1031.42 269 1035 265.418 1035 261C1035 256.582 1031.42 253 1027 253C1022.58 253 1019 256.582 1019 261C1019 265.418 1022.58 269 1027 269Z" fill="white"/>
<path opacity="0.2" d="M346 158C350.418 158 354 154.418 354 150C354 145.582 350.418 142 346 142C341.582 142 338 145.582 338 150C338 154.418 341.582 158 346 158Z" fill="white"/>
<path opacity="0.2" d="M458 44C462.418 44 466 40.4183 466 36C466 31.5817 462.418 28 458 28C453.582 28 450 31.5817 450 36C450 40.4183 453.582 44 458 44Z" fill="white"/>
<circle opacity="0.4" cx="144" cy="321" r="50" fill="#0C111F"/>
<circle opacity="0.4" cx="728" cy="219" r="50" fill="#0C111F"/>
<circle opacity="0.7" cx="143.5" cy="320.5" r="38.5" fill="#0C111F"/>
<circle opacity="0.7" cx="727.5" cy="218.5" r="38.5" fill="#0C111F"/>
</g>
<defs>
<filter id="filter0_d" x="-4" y="-20" width="1005.16" height="671.235" filterUnits="userSpaceOnUse" color-interpolation-filters="sRGB">
<feFlood flood-opacity="0" result="BackgroundImageFix"/>
<feColorMatrix in="SourceAlpha" type="matrix" values="0 0 0 0 0 0 0 0 0 0 0 0 0 0 0 0 0 0 127 0"/>
<feOffset dx="7" dy="-9"/>
<feGaussianBlur stdDeviation="5.5"/>
<feColorMatrix type="matrix" values="0 0 0 0 0.0470588 0 0 0 0 0.0666667 0 0 0 0 0.121569 0 0 0 0.33 0"/>
<feBlend mode="normal" in2="BackgroundImageFix" result="effect1_dropShadow"/>
<feBlend mode="normal" in="SourceGraphic" in2="effect1_dropShadow" result="shape"/>
</filter>
<linearGradient id="paint0_linear" x1="-26" y1="75.0001" x2="1520" y2="75.0001" gradientUnits="userSpaceOnUse">
<stop stop-color="#AC64DB"/>
<stop offset="1" stop-color="#52057B"/>
</linearGradient>
<linearGradient id="paint1_linear" x1="1193.54" y1="-3.54179e-07" x2="1193.54" y2="570.258" gradientUnits="userSpaceOnUse">
<stop stop-color="#A52EFF"/>
<stop offset="1" stop-color="#7541F9"/>
</linearGradient>
<linearGradient id="paint2_linear" x1="-22.5" y1="470.5" x2="961" y2="-6.99971" gradientUnits="userSpaceOnUse">
<stop stop-color="#BC6FF1"/>
<stop offset="1" stop-color="#52057B"/>
</linearGradient>
<linearGradient id="paint3_linear" x1="539.379" y1="-9.08005" x2="-170.288" y2="431.25" gradientUnits="userSpaceOnUse">
<stop stop-color="white" stop-opacity="0.161"/>
<stop offset="1" stop-color="white" stop-opacity="0"/>
</linearGradient>
<clipPath id="clip0">
<rect width="1440.16" height="649.235" fill="white"/>
</clipPath>
</defs>
</svg>
