<svg width="59" height="38" viewBox="0 0 59 38" fill="none" xmlns="http://www.w3.org/2000/svg">
<path fill-rule="evenodd" clip-rule="evenodd" d="M25.1958 3.88567C27.8634 4.21474 29.33 4.28384 31.8121 3.88567C35.7808 0.913073 38.0883 0.234679 42.2878 0.0184022C56.3476 -0.705689 64.342 37.5862 51.7986 38.0005C48.3527 38.0005 46.1807 35.8362 39.2553 27.6417H17.6147C17.4627 27.8289 17.312 28.0146 17.1626 28.1986L17.1572 28.2053C12.5697 33.8582 9.20813 38.0005 5.07142 38.0005C-5.26646 36.0669 1.48762 -0.929744 14.858 0.0184022C19.3829 0.33929 21.7623 0.902125 25.1958 3.88567ZM14.858 21.4265C16.3805 21.4265 17.6147 20.1898 17.6147 18.6642C17.6147 17.1386 16.3805 15.9018 14.858 15.9018C13.3354 15.9018 12.1012 17.1386 12.1012 18.6642C12.1012 20.1898 13.3354 21.4265 14.858 21.4265ZM45.0446 18.8023C45.0446 20.3279 43.8103 21.5646 42.2878 21.5646C40.7653 21.5646 39.531 20.3279 39.531 18.8023C39.531 17.2767 40.7653 16.0399 42.2878 16.0399C43.8103 16.0399 45.0446 17.2767 45.0446 18.8023Z" fill="url(#controller)"/>
<defs>
<linearGradient id="controller" x1="-10.6752" y1="19.0005" x2="71.9118" y2="19.0005" gradientUnits="userSpaceOnUse">
<stop stop-color="#4A0D70"/>
<stop offset="1" stop-color="#8E55B9"/>
</linearGradient>
</defs>
</svg>
