<svg width="40" height="40" viewBox="0 0 40 40" fill="none" xmlns="http://www.w3.org/2000/svg">
<path d="M40.0005 20C40.0005 31.0457 31.0462 40 20.0005 40C8.95479 40 0.000488281 31.0457 0.000488281 20C0.000488281 8.9543 8.95479 0 20.0005 0C31.0462 0 40.0005 8.9543 40.0005 20Z" fill="url(#paint0_linear)"/>
<path d="M0 19.9999C0.000486462 10 7.54 1.11612 18.0616 0.0984599C25.6227 12.6956 15.0757 23.0268 0 19.9999Z" fill="#6C7693"/>
<path d="M4.50729 15H14.5073V4.99998C14.5073 4.99998 17.4042 3.00005 19.5071 3C21.6102 2.99995 24.5073 4.99998 24.5073 4.99998V15H34.5073C34.5073 15 36.1306 18.2771 36.0071 20.4999C35.9044 22.3495 34.5073 25 34.5073 25H24.5073V35C24.5073 35 21.6102 37 19.5071 36.9999C17.4042 36.9999 14.5073 35 14.5073 35V25H4.50729C4.50729 25 3.10996 22.3496 3.00719 20.5C2.88369 18.2771 4.50729 15 4.50729 15Z" fill="url(#paint1_linear)"/>
<path d="M14.5073 15H4.50729C4.50729 15 2.88369 18.2771 3.00719 20.5C14.1794 20.3759 24.0005 14.5 19.5071 3C17.4042 3.00005 14.5073 4.99998 14.5073 4.99998V15Z" fill="#A35DD1"/>
<path opacity="0.4" d="M8.50049 32C9.32892 32 10.0005 31.3284 10.0005 30.5C10.0005 29.6716 9.32892 29 8.50049 29C7.67206 29 7.00049 29.6716 7.00049 30.5C7.00049 31.3284 7.67206 32 8.50049 32Z" fill="white"/>
<path opacity="0.2" d="M31.5005 22C31.3034 22.0005 31.1082 21.962 30.9262 21.8866C30.7441 21.8111 30.5788 21.7004 30.4398 21.5607C30.3001 21.4217 30.1893 21.2564 30.1139 21.0743C30.0385 20.8923 30 20.6971 30.0005 20.5C30 20.3029 30.0385 20.1077 30.1139 19.9256C30.1893 19.7436 30.3001 19.5783 30.4398 19.4393C30.5788 19.2996 30.7441 19.1888 30.9262 19.1134C31.1082 19.038 31.3034 18.9995 31.5005 19C31.6975 18.9995 31.8928 19.038 32.0748 19.1134C32.2569 19.1889 32.4222 19.2996 32.5611 19.4393C32.7009 19.5783 32.8116 19.7436 32.8871 19.9257C32.9625 20.1077 33.001 20.3029 33.0005 20.5C33.001 20.6971 32.9625 20.8923 32.8871 21.0743C32.8116 21.2564 32.7009 21.4217 32.5611 21.5607C32.4222 21.7004 32.2569 21.8111 32.0748 21.8866C31.8928 21.962 31.6975 22.0005 31.5005 22ZM31.5005 19.4286C31.2164 19.4289 30.9441 19.5419 30.7433 19.7428C30.5424 19.9436 30.4294 20.2159 30.4291 20.5C30.4293 20.7841 30.5423 21.0565 30.7432 21.2573C30.944 21.4582 31.2164 21.5712 31.5005 21.5714C31.7846 21.5712 32.057 21.4582 32.2578 21.2574C32.4587 21.0565 32.5717 20.7841 32.5719 20.5C32.5716 20.2159 32.4586 19.9436 32.2578 19.7427C32.0569 19.5419 31.7846 19.4289 31.5005 19.4286Z" fill="white"/>
<path d="M23.5005 33C23.7766 33 24.0005 32.7761 24.0005 32.5C24.0005 32.2239 23.7766 32 23.5005 32C23.2243 32 23.0005 32.2239 23.0005 32.5C23.0005 32.7761 23.2243 33 23.5005 33Z" fill="#131B32"/>
<path d="M12.5005 21C12.7766 21 13.0005 20.7761 13.0005 20.5C13.0005 20.2239 12.7766 20 12.5005 20C12.2243 20 12.0005 20.2239 12.0005 20.5C12.0005 20.7761 12.2243 21 12.5005 21Z" fill="#A35DD1"/>
<path opacity="0.2" d="M28.5005 13C28.7766 13 29.0005 12.7761 29.0005 12.5C29.0005 12.2239 28.7766 12 28.5005 12C28.2243 12 28.0005 12.2239 28.0005 12.5C28.0005 12.7761 28.2243 13 28.5005 13Z" fill="white"/>
<defs>
<linearGradient id="paint0_linear" x1="41.0005" y1="20.5" x2="-0.999511" y2="20.5" gradientUnits="userSpaceOnUse">
<stop stop-color="#0B111F"/>
<stop offset="1" stop-color="#2B3E70"/>
</linearGradient>
<linearGradient id="paint1_linear" x1="3.00049" y1="20" x2="36.0005" y2="20" gradientUnits="userSpaceOnUse">
<stop stop-color="#8E55B9"/>
<stop offset="0.0001" stop-color="#8008BF"/>
<stop offset="1" stop-color="#4A0D70"/>
</linearGradient>
</defs>
</svg>
